<mxfile host="app.diagrams.net" agent="Mozilla/5.0 (Windows NT 10.0; Win64; x64) AppleWebKit/537.36 (KHTML, like Gecko) Chrome/131.0.0.0 Safari/537.36 Edg/131.0.0.0" version="24.8.6">
  <diagram id="NREFhfmC0fiTIlS9u_gP" name="Page-1">
    <mxGraphModel dx="563" dy="287" grid="1" gridSize="10" guides="1" tooltips="1" connect="1" arrows="1" fold="1" page="1" pageScale="1" pageWidth="850" pageHeight="1100" math="0" shadow="0">
      <root>
        <mxCell id="0" />
        <mxCell id="1" parent="0" />
        <mxCell id="VtRMEEVYbdgrp5aKjrRK-1" value="User" style="rounded=0;whiteSpace=wrap;html=1;" vertex="1" parent="1">
          <mxGeometry x="70" y="720" width="120" height="130" as="geometry" />
        </mxCell>
        <mxCell id="VtRMEEVYbdgrp5aKjrRK-4" value="Admin" style="rounded=0;whiteSpace=wrap;html=1;" vertex="1" parent="1">
          <mxGeometry x="600" y="720" width="120" height="130" as="geometry" />
        </mxCell>
        <mxCell id="VtRMEEVYbdgrp5aKjrRK-5" value="" style="endArrow=classic;html=1;rounded=0;exitX=1;exitY=0.25;exitDx=0;exitDy=0;" edge="1" parent="1" source="VtRMEEVYbdgrp5aKjrRK-1">
          <mxGeometry width="50" height="50" relative="1" as="geometry">
            <mxPoint x="200" y="940" as="sourcePoint" />
            <mxPoint x="290" y="750" as="targetPoint" />
            <Array as="points">
              <mxPoint x="190" y="750" />
            </Array>
          </mxGeometry>
        </mxCell>
        <mxCell id="VtRMEEVYbdgrp5aKjrRK-6" value="Register" style="edgeLabel;html=1;align=center;verticalAlign=middle;resizable=0;points=[];" vertex="1" connectable="0" parent="VtRMEEVYbdgrp5aKjrRK-5">
          <mxGeometry x="-0.024" y="2" relative="1" as="geometry">
            <mxPoint as="offset" />
          </mxGeometry>
        </mxCell>
        <mxCell id="VtRMEEVYbdgrp5aKjrRK-12" value="" style="endArrow=classic;html=1;rounded=0;entryX=-0.002;entryY=0.424;entryDx=0;entryDy=0;entryPerimeter=0;" edge="1" parent="1" target="VtRMEEVYbdgrp5aKjrRK-28">
          <mxGeometry width="50" height="50" relative="1" as="geometry">
            <mxPoint x="190" y="774" as="sourcePoint" />
            <mxPoint x="291.70000000000005" y="773.76" as="targetPoint" />
            <Array as="points">
              <mxPoint x="190" y="774" />
            </Array>
          </mxGeometry>
        </mxCell>
        <mxCell id="VtRMEEVYbdgrp5aKjrRK-15" value="Login" style="edgeLabel;html=1;align=center;verticalAlign=middle;resizable=0;points=[];" vertex="1" connectable="0" parent="VtRMEEVYbdgrp5aKjrRK-12">
          <mxGeometry x="-0.02" relative="1" as="geometry">
            <mxPoint as="offset" />
          </mxGeometry>
        </mxCell>
        <mxCell id="VtRMEEVYbdgrp5aKjrRK-13" value="" style="endArrow=classic;html=1;rounded=0;exitX=0.992;exitY=0.456;exitDx=0;exitDy=0;entryX=0;entryY=0.5;entryDx=0;entryDy=0;exitPerimeter=0;" edge="1" parent="1">
          <mxGeometry width="50" height="50" relative="1" as="geometry">
            <mxPoint x="189" y="800" as="sourcePoint" />
            <mxPoint x="290" y="800" as="targetPoint" />
          </mxGeometry>
        </mxCell>
        <mxCell id="VtRMEEVYbdgrp5aKjrRK-16" value="Search Rooms" style="edgeLabel;html=1;align=center;verticalAlign=middle;resizable=0;points=[];" vertex="1" connectable="0" parent="VtRMEEVYbdgrp5aKjrRK-13">
          <mxGeometry x="-0.053" y="-2" relative="1" as="geometry">
            <mxPoint as="offset" />
          </mxGeometry>
        </mxCell>
        <mxCell id="VtRMEEVYbdgrp5aKjrRK-14" value="" style="endArrow=classic;html=1;rounded=0;exitX=0.992;exitY=0.456;exitDx=0;exitDy=0;entryX=0;entryY=0.5;entryDx=0;entryDy=0;exitPerimeter=0;" edge="1" parent="1">
          <mxGeometry width="50" height="50" relative="1" as="geometry">
            <mxPoint x="189" y="820" as="sourcePoint" />
            <mxPoint x="290" y="820" as="targetPoint" />
          </mxGeometry>
        </mxCell>
        <mxCell id="VtRMEEVYbdgrp5aKjrRK-17" value="Book Rooms" style="edgeLabel;html=1;align=center;verticalAlign=middle;resizable=0;points=[];" vertex="1" connectable="0" parent="VtRMEEVYbdgrp5aKjrRK-14">
          <mxGeometry x="-0.053" y="2" relative="1" as="geometry">
            <mxPoint as="offset" />
          </mxGeometry>
        </mxCell>
        <mxCell id="VtRMEEVYbdgrp5aKjrRK-18" value="" style="endArrow=classic;html=1;rounded=0;exitX=-0.001;exitY=0.858;exitDx=0;exitDy=0;exitPerimeter=0;" edge="1" parent="1">
          <mxGeometry width="50" height="50" relative="1" as="geometry">
            <mxPoint x="289.8299999999999" y="840.1199999999999" as="sourcePoint" />
            <mxPoint x="190" y="840" as="targetPoint" />
          </mxGeometry>
        </mxCell>
        <mxCell id="VtRMEEVYbdgrp5aKjrRK-19" value="Rooms" style="edgeLabel;html=1;align=center;verticalAlign=middle;resizable=0;points=[];" vertex="1" connectable="0" parent="VtRMEEVYbdgrp5aKjrRK-18">
          <mxGeometry x="0.003" y="1" relative="1" as="geometry">
            <mxPoint as="offset" />
          </mxGeometry>
        </mxCell>
        <mxCell id="VtRMEEVYbdgrp5aKjrRK-20" value="" style="endArrow=classic;html=1;rounded=0;exitX=1;exitY=0.25;exitDx=0;exitDy=0;entryX=0;entryY=0.25;entryDx=0;entryDy=0;" edge="1" parent="1" target="VtRMEEVYbdgrp5aKjrRK-4">
          <mxGeometry width="50" height="50" relative="1" as="geometry">
            <mxPoint x="460" y="755" as="sourcePoint" />
            <mxPoint x="609.3999999999999" y="762.77" as="targetPoint" />
          </mxGeometry>
        </mxCell>
        <mxCell id="VtRMEEVYbdgrp5aKjrRK-23" value="User Details" style="edgeLabel;html=1;align=center;verticalAlign=middle;resizable=0;points=[];" vertex="1" connectable="0" parent="VtRMEEVYbdgrp5aKjrRK-20">
          <mxGeometry x="-0.2031" y="1" relative="1" as="geometry">
            <mxPoint as="offset" />
          </mxGeometry>
        </mxCell>
        <mxCell id="VtRMEEVYbdgrp5aKjrRK-21" value="" style="endArrow=classic;html=1;rounded=0;exitX=0.998;exitY=0.452;exitDx=0;exitDy=0;entryX=-0.005;entryY=0.329;entryDx=0;entryDy=0;entryPerimeter=0;exitPerimeter=0;" edge="1" parent="1" source="VtRMEEVYbdgrp5aKjrRK-28">
          <mxGeometry width="50" height="50" relative="1" as="geometry">
            <mxPoint x="461" y="775.5" as="sourcePoint" />
            <mxPoint x="600" y="774.5" as="targetPoint" />
          </mxGeometry>
        </mxCell>
        <mxCell id="VtRMEEVYbdgrp5aKjrRK-24" value="Room Bookings" style="edgeLabel;html=1;align=center;verticalAlign=middle;resizable=0;points=[];" vertex="1" connectable="0" parent="VtRMEEVYbdgrp5aKjrRK-21">
          <mxGeometry x="-0.1275" y="-1" relative="1" as="geometry">
            <mxPoint as="offset" />
          </mxGeometry>
        </mxCell>
        <mxCell id="VtRMEEVYbdgrp5aKjrRK-22" value="" style="endArrow=classic;html=1;rounded=0;exitX=-0.005;exitY=0.721;exitDx=0;exitDy=0;entryX=1.001;entryY=0.682;entryDx=0;entryDy=0;entryPerimeter=0;exitPerimeter=0;" edge="1" parent="1" source="VtRMEEVYbdgrp5aKjrRK-4" target="VtRMEEVYbdgrp5aKjrRK-28">
          <mxGeometry width="50" height="50" relative="1" as="geometry">
            <mxPoint x="470" y="851" as="sourcePoint" />
            <mxPoint x="459.6600000000001" y="812.8199999999999" as="targetPoint" />
          </mxGeometry>
        </mxCell>
        <mxCell id="VtRMEEVYbdgrp5aKjrRK-25" value="Room Details" style="edgeLabel;html=1;align=center;verticalAlign=middle;resizable=0;points=[];" vertex="1" connectable="0" parent="VtRMEEVYbdgrp5aKjrRK-22">
          <mxGeometry x="0.0455" relative="1" as="geometry">
            <mxPoint as="offset" />
          </mxGeometry>
        </mxCell>
        <mxCell id="VtRMEEVYbdgrp5aKjrRK-28" value="Hotel Reservation System" style="rounded=1;whiteSpace=wrap;html=1;" vertex="1" parent="1">
          <mxGeometry x="290" y="710" width="170" height="150" as="geometry" />
        </mxCell>
      </root>
    </mxGraphModel>
  </diagram>
</mxfile>
